<?xml version="1.0" encoding="utf-8"?>
<!-- Generator: Adobe Illustrator 22.1.0, SVG Export Plug-In . SVG Version: 6.00 Build 0)  -->
<svg version="1.1" id="Ebene_1" xmlns="http://www.w3.org/2000/svg" xmlns:xlink="http://www.w3.org/1999/xlink" x="0px" y="0px"
	 viewBox="0 0 153.1 102" style="enable-background:new 0 0 153.1 102;" xml:space="preserve">
<style type="text/css">
	.st0{fill:#95C11F;}
	.st1{fill:#FFFFFF;}
</style>
<g>
	<rect y="0" class="st0" width="153.1" height="102"/>
</g>
<path class="st1" d="M59.6,23.6c1.6,0.1,2.4,0.2,4,0.4c0.5,0.1,1-0.2,1.1-0.5c0.3-1.1,0.4-1.6,0.7-2.7c0.1-0.4,0.4-0.3,0.6,0.1
	c0.7,1.2,1,1.8,1.7,3.1c0.2,0.4,0.8,0.8,1.3,0.9c1.5,0.3,2,0.4,3.9,0.9c0.5,0.1,0.6,0.4,0.2,0.5c-1.1,0.4-1.7,0.5-2.8,1
	c-0.4,0.1-0.5,0.6-0.3,1c0.6,1.2,0.9,1.9,1.5,3.2c0.2,0.4,0,0.5-0.4,0.1c-1.3-1.1-1.9-1.5-3.2-2.4c-0.4-0.3-1.1-0.4-1.5-0.3
	c-1.1,0.5-1.7,0.8-2.8,1.3c-0.4,0.2-0.6,0-0.5-0.3c0.3-1,0.4-1.7,0.7-2.7c0.1-0.3-0.2-0.9-0.7-1.1c-1.4-0.8-2.1-1.3-3.6-2
	C59,23.7,59.1,23.5,59.6,23.6"/>
<path class="st1" d="M43.7,35.2c1.9-0.4,2.5-0.5,4.4-0.8c0.6-0.1,1.1-0.4,1.2-0.8c0.4-1.1,0.6-1.7,1-2.8c0.1-0.4,0.4-0.4,0.6,0
	c0.6,1,0.9,1.6,1.6,2.6c0.2,0.3,0.8,0.6,1.3,0.6c1.7-0.1,2.1-0.2,3.9-0.3c0.5,0,0.6,0.2,0.2,0.4c-1.3,0.9-1.8,1.2-3,2
	c-0.4,0.2-0.6,0.7-0.4,1c0.6,1.1,0.9,1.6,1.4,2.8c0.2,0.4,0,0.5-0.4,0.2c-1.3-0.7-2-1.1-3.3-1.7c-0.5-0.2-1.2-0.2-1.6,0.1
	c-1.3,0.8-1.7,1-3.4,2.1c-0.5,0.3-0.7,0.2-0.5-0.2c0.5-1.4,0.7-1.7,1.2-2.9c0.1-0.4-0.1-0.8-0.6-0.9c-1.5-0.5-2.2-0.6-3.8-1
	C43,35.5,43.1,35.3,43.7,35.2"/>
<path class="st1" d="M35.3,50c1.8-0.1,2.6-0.2,4.3-0.2c0.5,0,1.2-0.3,1.5-0.7c0.8-1.1,1.2-1.7,2.1-2.8c0.3-0.4,0.5-0.3,0.6,0
	c0.2,1.2,0.2,1.7,0.4,2.9c0,0.4,0.5,0.7,1,0.8c1.7,0.2,1.9,0.3,3.6,0.6c0.5,0.1,0.5,0.3,0,0.4c-1.4,0.4-2,0.7-3.5,1.2
	c-0.5,0.2-0.9,0.7-0.9,1c0,1.2,0,1.8,0,3c0,0.4-0.2,0.5-0.5,0.2c-0.9-0.9-1.4-1.3-2.3-2.1c-0.3-0.3-1-0.3-1.5-0.1
	c-1.6,0.7-2.3,1-3.9,1.8c-0.5,0.2-0.7,0.1-0.4-0.3c0.9-1.2,1.4-1.8,2.3-2.9c0.3-0.4,0.3-0.9-0.1-1.1c-1.1-0.7-1.7-1-2.9-1.6
	C34.6,50.2,34.7,50,35.3,50"/>
<path class="st1" d="M63.9,69.7c-1.2,0.7-1.8,1.1-3.1,2c-0.4,0.3-0.7,0.9-0.5,1.4c0.3,1.4,0.5,2.1,0.8,3.6c0.1,0.5-0.1,0.6-0.5,0.4
	c-1.1-0.9-1.6-1.4-2.7-2.2c-0.4-0.3-1-0.2-1.4,0.1c-1.3,1-1.9,1.5-3.2,2.5c-0.4,0.3-0.6,0.2-0.4-0.3c0.6-1.5,0.9-2.3,1.5-3.7
	c0.2-0.5,0.1-1.1-0.3-1.3c-1.1-0.7-1.7-1.1-2.8-1.8c-0.4-0.2-0.3-0.4,0.2-0.5c1.5-0.2,2.2-0.3,3.7-0.4c0.5,0,1-0.4,1.2-0.9
	c0.6-1.4,0.8-2.1,1.4-3.3c0.2-0.4,0.4-0.4,0.5,0c0.3,1.3,0.5,1.9,0.8,3.2c0.1,0.4,0.6,0.8,1,0.8c1.4,0,2.2-0.1,3.6,0.1
	C64.2,69.2,64.2,69.5,63.9,69.7"/>
<path class="st1" d="M83.1,71.9c-1,0.3-1.5,0.5-2.6,0.9c-0.3,0.1-0.5,0.6-0.3,1c0.5,1.3,0.7,1.9,1.2,3.2c0.2,0.4,0,0.5-0.4,0.2
	c-1.1-1-1.7-1.5-2.8-2.5c-0.4-0.3-0.9-0.5-1.3-0.4c-1.1,0.4-1.6,0.7-2.7,1.2c-0.4,0.2-0.5,0-0.4-0.4c0.4-1.2,0.6-1.7,1-2.8
	c0.1-0.4,0-0.9-0.4-1.3c-1.1-1.1-1.6-1.6-2.6-2.7c-0.3-0.3-0.3-0.5,0.2-0.4c1.3,0.4,2,0.6,3.3,1c0.4,0.1,0.9,0,1-0.4
	c0.4-1,0.6-1.5,0.9-2.5c0.1-0.3,0.3-0.2,0.5,0.2c0.4,1.3,0.6,1.9,1.1,3.2c0.1,0.4,0.6,0.9,1,1c1.3,0.4,2,0.6,3.3,1.1
	C83.3,71.5,83.4,71.7,83.1,71.9"/>
<path class="st1" d="M100.3,66.8c-1.1,0.4-1.7,0.7-2.8,1.1c-0.4,0.1-0.5,0.6-0.3,1c0.6,1.2,0.9,1.8,1.5,3c0.2,0.4,0,0.5-0.4,0.2
	c-1.3-0.9-1.9-1.4-3.2-2.5c-0.4-0.4-1-0.6-1.4-0.5c-1.1,0.3-1.6,0.5-2.6,0.8c-0.3,0.1-0.5-0.1-0.5-0.4c0.3-1,0.5-1.6,0.8-2.6
	c0.1-0.3-0.1-0.9-0.5-1.3c-1.2-1.2-1.8-1.8-2.9-2.9c-0.4-0.4-0.3-0.5,0.1-0.4c1.4,0.6,2.1,0.8,3.4,1.4c0.4,0.2,0.9,0,1-0.3
	c0.3-1,0.5-1.5,0.8-2.5c0.1-0.3,0.3-0.2,0.5,0.2c0.5,1.3,0.8,2,1.3,3.3c0.2,0.4,0.7,0.9,1.2,1.1c1.4,0.5,2.2,0.6,3.7,0.9
	C100.6,66.4,100.7,66.6,100.3,66.8"/>
<path class="st1" d="M111.5,55.3c-1.1,0.8-1.6,1.1-2.7,1.8c-0.3,0.2-0.5,0.6-0.3,1c0.5,1,0.7,1.4,1.2,2.4c0.2,0.3,0,0.4-0.4,0.2
	c-1.1-0.6-1.7-0.9-2.8-1.6c-0.4-0.2-0.9-0.3-1.2-0.2c-1,0.4-1.5,0.7-2.4,1.1c-0.3,0.1-0.5,0-0.4-0.3c0.3-0.9,0.5-1.3,0.8-2.2
	c0.1-0.3-0.1-0.8-0.4-1c-1-0.8-1.6-1.3-2.6-2.2c-0.3-0.3-0.3-0.4,0.1-0.3c1.2,0.3,1.8,0.4,3.1,0.7c0.4,0.1,0.8-0.2,1-0.5
	c0.4-1,0.5-1.6,0.9-2.7c0.1-0.3,0.3-0.3,0.5,0c0.4,1.2,0.6,1.7,1.1,2.9c0.1,0.4,0.6,0.7,1,0.7c1.3,0.1,2,0.1,3.4,0
	C111.8,54.9,111.9,55.1,111.5,55.3"/>
<path class="st1" d="M120.7,38c-1.1,1.1-1.6,1.6-2.6,2.7c-0.3,0.3-0.5,0.9-0.4,1.2c0.4,0.9,0.5,1.4,0.9,2.3c0.1,0.3,0,0.5-0.4,0.4
	c-1-0.2-1.5-0.4-2.5-0.7c-0.3-0.1-0.8,0-1.2,0.3c-1,0.9-1.5,1.4-2.5,2.2c-0.3,0.3-0.5,0.2-0.3-0.2c0.3-1.1,0.6-1.7,1-2.8
	c0.1-0.4,0-0.8-0.3-1c-0.9-0.5-1.4-0.7-2.3-1.2c-0.3-0.2-0.2-0.4,0.1-0.4c1.2-0.2,1.8-0.3,2.9-0.6c0.4-0.1,0.8-0.5,1-0.9
	c0.4-1.2,0.6-1.8,1.1-3.1c0.1-0.4,0.3-0.5,0.4-0.1c0.3,1,0.5,1.6,0.8,2.6c0.1,0.3,0.5,0.5,0.9,0.3c1.2-0.4,1.9-0.7,3.2-1.2
	C120.9,37.5,121,37.6,120.7,38"/>
<path class="st1" d="M100.8,26.5c1.1,0.1,1.5,0.1,2.8,0c0.4,0,0.7-0.3,0.9-0.7c0.3-1.2,0.5-1.8,0.8-3.1c0.1-0.4,0.3-0.4,0.4-0.1
	c0.4,1.2,0.6,1.8,0.9,2.9c0.1,0.4,0.5,0.6,0.9,0.6c1,0,1.6,0,2.9-0.1c0.4,0,0.5,0.1,0.1,0.4c-0.9,0.7-1.4,1-2.3,1.7
	c-0.3,0.2-0.4,0.8-0.3,1.1c0.4,1,0.6,1.5,1,2.5c0.1,0.3,0,0.4-0.3,0.3c-0.9-0.5-1.4-0.8-2.3-1.3c-0.3-0.2-0.8-0.1-1.1,0.1
	c-0.9,0.7-1.3,1.1-2.1,1.7c-0.3,0.2-0.4,0.1-0.3-0.2c0.3-1,0.4-1.5,0.7-2.6c0.1-0.4-0.1-0.8-0.4-1c-0.9-0.7-1.4-1.1-2.3-1.8
	C100.4,26.7,100.5,26.5,100.8,26.5"/>
<path class="st1" d="M80.8,22.7c1.3,0.4,1.9,0.5,3.2,0.9c0.4,0.1,0.8-0.1,0.9-0.4c0.3-1,0.5-1.5,0.9-2.6c0.1-0.3,0.3-0.3,0.5,0.1
	c0.4,1.3,0.6,1.9,1.1,3.1c0.1,0.4,0.6,0.8,1,0.9c1.3,0.4,1.9,0.5,3.1,0.9c0.4,0.1,0.5,0.3,0.1,0.5c-1,0.4-1.5,0.6-2.5,1
	c-0.3,0.1-0.5,0.5-0.4,0.9c0.4,1.2,0.6,1.8,0.9,3c0.1,0.4,0,0.4-0.4,0.1c-1-1-1.4-1.5-2.4-2.5c-0.3-0.3-0.8-0.5-1.2-0.4
	c-0.9,0.3-1.4,0.5-2.3,0.8c-0.3,0.1-0.5-0.1-0.4-0.4c0.3-0.9,0.5-1.3,0.8-2.3c0.1-0.3-0.1-0.8-0.4-1.1c-1-1-1.6-1.4-2.6-2.4
	C80.3,22.7,80.4,22.6,80.8,22.7"/>
<path class="st1" d="M130.6,21.9c-0.9,0.8-1.4,1.3-2.4,2.2c-0.3,0.3-0.5,0.7-0.4,1c0.3,0.8,0.5,1.1,0.9,1.8c0.1,0.2,0,0.4-0.4,0.3
	c-1-0.1-1.5-0.2-2.4-0.4c-0.3-0.1-0.8,0.1-1.2,0.4c-1,0.9-1.6,1.4-2.6,2.4c-0.3,0.3-0.5,0.3-0.4-0.1c0.5-1.1,0.7-1.6,1.1-2.7
	c0.2-0.4,0-0.7-0.3-0.8c-0.9-0.3-1.4-0.5-2.3-0.8c-0.3-0.1-0.2-0.3,0.2-0.4c1.2-0.3,1.8-0.5,3-0.9c0.4-0.1,0.8-0.5,1-0.9
	c0.5-1.1,0.7-1.7,1.1-2.8c0.2-0.4,0.3-0.4,0.4-0.1c0.3,0.9,0.4,1.4,0.7,2.2c0.1,0.3,0.5,0.4,0.9,0.3c1.2-0.4,1.8-0.6,2.9-0.9
	C130.8,21.5,130.9,21.7,130.6,21.9"/>
<path class="st1" d="M89.7,41.9c0.7-0.2,0.8-0.5,0-0.5c-1.4,0.1-17.3,3.7-31.1,11.8C43.6,62,39,66.4,35.8,68.9
	c-0.8,0.7-1.5,0.7-1.6,0.3c-0.5-1.4-0.8-2.1-1.3-3.4c-0.1-0.4-0.5-0.3-0.7,0.2c-0.6,1.9-0.8,3-1.4,4.7c-0.2,0.5-0.4,1.1-1.4,1.8
	c-2,1.4-2.4,1.6-3.6,2.5c-0.4,0.3-0.7,0.6,0.2,0.8c0.9,0.2,1,0.2,2.2,0.4c0.9,0.2,0.6,0.8,0.5,1.3c-0.4,1.6-0.5,2.2-1,3.8
	c-0.2,0.5,0,0.6,0.5,0.1c1.3-1.4,1.7-1.8,3.1-3.3c0.5-0.5,1-1.2,1.6-1.1c1.4,0.2,1.5,0.3,3.4,0.6c0.8,0.2,0.8-0.2,0.6-0.8
	c-0.7-1.6-0.5-1.4-1-2.8c-0.2-0.4-0.2-1.2,0.3-1.7c7.9-7.7,11.2-10.2,22.1-17.3C66.8,49.5,78.2,45.1,89.7,41.9z"/>
</svg>
