<?xml version="1.0" encoding="utf-8"?>
<!-- Generator: Adobe Illustrator 22.1.0, SVG Export Plug-In . SVG Version: 6.00 Build 0)  -->
<svg version="1.1" id="Ebene_1" xmlns="http://www.w3.org/2000/svg" xmlns:xlink="http://www.w3.org/1999/xlink" x="0px" y="0px"
	 viewBox="0 0 194.9 250.8" style="enable-background:new 0 0 194.9 250.8;" xml:space="preserve">
<style type="text/css">
	.st0{clip-path:url(#SVGID_2_);fill:#FFFFFF;}
</style>
<g>
	<g>
		<defs>
			<rect id="SVGID_1_" width="194.9" height="249.8"/>
		</defs>
		<clipPath id="SVGID_2_">
			<use xlink:href="#SVGID_1_"  style="overflow:visible;"/>
		</clipPath>
		<path class="st0" d="M169.7,26.3C152.6,9.9,129,0.8,103.1,0.8C63.7,0.8,39.4,17,26,30.6C9.5,47.3,0,69.5,0,91.5
			c0,27.6,11.5,48.8,30.9,56.7c1.3,0.5,2.6,0.8,3.9,0.8c4.1,0,7.3-2.7,8.4-7c0.7-2.5,2.2-8.5,2.8-11.1c1.4-5.2,0.3-7.7-2.8-11.3
			c-5.6-6.6-8.2-14.4-8.2-24.6c0-30.3,22.5-62.4,64.3-62.4c33.1,0,53.7,18.8,53.7,49.1c0,19.1-4.1,36.8-11.6,49.9
			c-5.2,9.1-14.3,19.9-28.4,19.9c-6.1,0-11.5-2.5-15-6.8c-3.2-4.1-4.3-9.4-3-14.9c1.5-6.3,3.5-12.8,5.4-19.1
			c3.6-11.5,6.9-22.4,6.9-31.1c0-14.8-9.1-24.8-22.7-24.8c-17.3,0-30.8,17.5-30.8,39.9c0,11,2.9,19.2,4.2,22.3
			c-2.2,9.2-15.1,64-17.5,74.3c-1.4,6-10,53.6,4.2,57.4c15.9,4.3,30.1-42.1,31.5-47.3c1.2-4.3,5.3-20.4,7.8-30.3
			c7.7,7.4,20,12.4,32,12.4c22.6,0,43-10.2,57.3-28.7c13.9-17.9,21.5-42.9,21.5-70.4C194.9,62.8,185.7,41.7,169.7,26.3L169.7,26.3z
			 M169.7,26.3"/>
	</g>
</g>
</svg>
