<?xml version="1.0" encoding="iso-8859-1"?>
<!-- Generator: Adobe Illustrator 22.1.0, SVG Export Plug-In . SVG Version: 6.00 Build 0)  -->
<svg version="1.1" id="Layer_1" xmlns="http://www.w3.org/2000/svg" xmlns:xlink="http://www.w3.org/1999/xlink" x="0px" y="0px"
	 viewBox="-49 141 512 512" style="enable-background:new -49 141 512 512;" xml:space="preserve">
<g>
	<path style="fill:#FFFFFF;" d="M207.002,631.758c-1.246,0-2.475-0.026-3.695-0.085c-0.845,0.06-1.707,0.085-2.577,0.085
		c-32.939,0-49.408-9.796-67.524-22.605c-12.305-8.695-22.912-16.196-35.004-18.202c-6.409-1.058-12.74-1.604-18.825-1.604
		c-10.965,0-19.806,1.724-26.274,2.995c-4.497,0.87-8.636,1.681-12.211,1.681c-10.564,0-14.217-7.083-15.445-11.307
		c-1.22-4.173-2.116-8.201-2.97-12.1c-0.589-2.731-1.621-7.441-2.509-9.737c-40.431-6.417-61.909-15.573-67.55-28.766
		c-0.836-1.98-1.289-3.942-1.399-5.897c-0.393-7.031,4.574-13.21,11.537-14.353c67.115-11.051,97.502-80.23,98.765-83.174
		c3.541-7.228,4.343-12.561,2.662-16.512c-3.396-7.996-17.749-12.544-26.325-15.266c-3.072-0.973-5.572-1.775-7.561-2.56
		C4.514,384.24,1.084,371.961,2.714,363.444c2.995-15.735,25.165-23.33,37.291-17.647c8.388,3.925,15.77,5.922,21.931,5.922
		c2.876,0,4.992-0.444,6.46-0.947c-0.188-3.251-0.401-6.588-0.614-10.01c-2.202-34.799-4.949-78.097,6.665-104.115
		c34.236-76.791,106.829-82.756,128.265-82.756l10.018-0.094c21.478,0,94.208,5.973,128.478,82.807
		c11.588,25.958,8.866,69.274,6.673,104.081l-0.094,1.493c-0.179,2.927-0.367,5.794-0.529,8.585
		c1.289,0.435,3.072,0.828,5.427,0.922c5.291-0.23,12.288-2.21,20.156-5.888c4.036-1.886,8.26-2.287,11.102-2.287
		c4.113,0,8.337,0.811,11.887,2.295c10.3,3.644,17.254,11.785,17.434,20.651c0.196,11.179-9.131,20.557-27.716,27.895
		c-1.928,0.768-4.352,1.536-6.938,2.372c-9.19,2.91-23.543,7.45-26.931,15.462c-1.69,3.934-0.887,9.267,2.347,15.838
		c0.068,0.154,0.316,0.674,0.375,0.819c3.14,7.407,32.538,72.661,97.058,83.294c6.963,1.161,11.913,7.339,11.537,14.37
		c-0.137,2.133-0.631,4.139-1.476,6.033c-5.632,13.158-25.984,21.956-65.835,28.297c-0.939,2.449-2.048,7.535-2.509,9.66
		c-0.87,3.994-1.766,7.902-2.961,12.015c-2.074,7.074-7.501,11.127-14.874,11.127c-3.652,0-7.612-0.478-12.672-1.476
		c-7.484-1.468-15.872-2.816-26.385-2.816c-6.084,0-12.425,0.546-18.85,1.604c-12.1,2.014-23.194,9.865-34.935,18.176
		C261.248,624.138,235.853,631.758,207.002,631.758"/>
</g>
</svg>
